<svg version="1.1" xmlns="http://www.w3.org/2000/svg" xmlns:xlink="http://www.w3.org/1999/xlink" width="38.90435" height="19.40577" viewBox="0,0,38.90435,19.40577"><g transform="translate(-220.54786,-180.04642)"><g data-paper-data="{&quot;isPaintingLayer&quot;:true}" fill-rule="nonzero" stroke="none" stroke-linecap="butt" stroke-linejoin="miter" stroke-miterlimit="10" stroke-dasharray="" stroke-dashoffset="0" style="mix-blend-mode: normal"><g fill="#ff0000"><path d="M220.54786,182.95728c0,-1.60763 2.6127,-2.91086 5.83565,-2.91086c3.22295,0 5.83565,1.30323 5.83565,2.91086c0,1.60763 -2.6127,2.91086 -5.83565,2.91086c-3.22295,0 -5.83565,-1.30323 -5.83565,-2.91086z" stroke-width="0.5"/><path d="M247.78092,182.95728c0,-1.60763 2.61272,-2.91086 5.83565,-2.91086c3.22295,0 5.83565,1.30323 5.83565,2.91086c0,1.60763 -2.61272,2.91086 -5.83565,2.91086c-3.22294,0 -5.83565,-1.30323 -5.83565,-2.91086z" stroke-width="0.5"/><path d="M247.78092,196.54132c0,-1.60763 2.61272,-2.91086 5.83565,-2.91086c3.22295,0 5.83565,1.30323 5.83565,2.91086c0,1.60763 -2.61272,2.91086 -5.83565,2.91086c-3.22294,0 -5.83565,-1.30323 -5.83565,-2.91086z" stroke-width="0.5"/><path d="M220.54786,196.54132c0,-1.60763 2.6127,-2.91086 5.83565,-2.91086c3.22295,0 5.83565,1.30323 5.83565,2.91086c0,1.60763 -2.6127,2.91086 -5.83565,2.91086c-3.22295,0 -5.83565,-1.30323 -5.83565,-2.91086z" stroke-width="0.5"/><path d="M220.54786,196.54132v-13.97216h38.90435v13.97216z" stroke-width="0"/><path d="M225.99449,199.45219v-19.40577h26.84401v19.40577z" stroke-width="0"/></g><path d="M226.86984,189.74929c0,-3.61716 5.8786,-6.54945 13.13022,-6.54945c7.25162,0 13.13022,2.93229 13.13022,6.54945c0,3.61716 -5.8786,6.54945 -13.13022,6.54945c-7.25162,0 -13.13022,-2.93229 -13.13022,-6.54945z" fill="#ffffff" stroke-width="0.5"/><path d="M232.02465,189.74929c0,-2.19709 3.57071,-3.97819 7.9754,-3.97819c4.40468,0 7.97539,1.7811 7.97539,3.97819c0,2.19709 -3.57071,3.97819 -7.97539,3.97819c-4.40468,0 -7.9754,-1.7811 -7.9754,-3.97819z" fill="#000000" stroke-width="0.5"/><path d="M240.50155,187.90575c0,-0.64305 1.04508,-1.16435 2.33426,-1.16435c1.28918,0 2.33426,0.52129 2.33426,1.16435c0,0.64305 -1.04508,1.16435 -2.33426,1.16435c-1.28918,0 -2.33426,-0.52129 -2.33426,-1.16435z" fill="#ffffff" stroke-width="0.5"/></g></g></svg>