<svg version="1.1" xmlns="http://www.w3.org/2000/svg" xmlns:xlink="http://www.w3.org/1999/xlink" width="379.01314" height="115.49893" viewBox="0,0,379.01314,115.49893"><g transform="translate(-68.06307,-228.09158)"><g data-paper-data="{&quot;isPaintingLayer&quot;:true}" fill-rule="nonzero" stroke="none" stroke-width="0" stroke-linecap="butt" stroke-linejoin="miter" stroke-miterlimit="10" stroke-dasharray="" stroke-dashoffset="0" style="mix-blend-mode: normal"><path d="M123.02931,264.54497c9.74369,-14.03578 24.967,-35.96488 24.967,-35.96488v114.88333c-26.54857,-0.43477 -79.93323,-0.3639 -79.93323,-0.3639c0,0 37.87318,-53.93209 54.96632,-78.55452z" fill="#00f8ff"/><path d="M146.63318,228.58005l81.39288,114.55238c0,0 -52.22334,0.77498 -81.39288,0.30892z" data-paper-data="{&quot;index&quot;:null}" fill="#00d7de"/><path d="M337.75643,264.0565c10.14487,-14.03578 25.99496,-35.96488 25.99496,-35.96488v114.88333c-27.64166,-0.43477 -83.22432,-0.3639 -83.22432,-0.3639c0,0 39.43254,-53.93209 57.22945,-78.55452z" fill="#00f8ff"/><path d="M362.33215,228.09158l84.74407,114.55238c0,0 -54.37353,0.77498 -84.74407,0.30892z" data-paper-data="{&quot;index&quot;:null}" fill="#00d7de"/></g></g></svg>