<svg version="1.1" xmlns="http://www.w3.org/2000/svg" xmlns:xlink="http://www.w3.org/1999/xlink" width="220.89792" height="126.39741" viewBox="0,0,220.89792,126.39741"><g transform="translate(-126.76994,-199.32682)"><g data-paper-data="{&quot;isPaintingLayer&quot;:true}" fill-rule="nonzero" stroke="none" stroke-width="0" stroke-linecap="butt" stroke-linejoin="miter" stroke-miterlimit="10" stroke-dasharray="" stroke-dashoffset="0" style="mix-blend-mode: normal"><path d="M229.69922,238.93013c2.22483,-15.08711 5.70085,-38.65881 5.70085,-38.65881v123.4886c-6.06198,-0.46734 -18.25159,-0.39116 -18.25159,-0.39116c0,0 8.64779,-57.97183 12.55076,-84.4386z" fill="#00f8ff"/><path d="M235.08882,200.2713l18.58488,123.13285c0,0 -11.92444,0.83303 -18.58488,0.33206z" data-paper-data="{&quot;index&quot;:null}" fill="#00d7de"/><path d="M323.69338,237.00561c2.22483,-14.70465 5.70085,-37.6788 5.70085,-37.6788v120.35814c-6.06198,-0.45549 -18.25159,-0.38124 -18.25159,-0.38124c0,0 8.64779,-56.50223 12.55076,-82.29806z" fill="#00f8ff"/><path d="M329.08298,201.26532l18.58488,120.0114c0,0 -11.92444,0.81192 -18.58488,0.32365z" data-paper-data="{&quot;index&quot;:null}" fill="#00d7de"/><path d="" fill="#00f8ff"/><path d="" data-paper-data="{&quot;index&quot;:null}" fill="#00d7de"/><path d="M139.32068,240.00339c2.22483,-15.22107 5.70085,-39.00207 5.70085,-39.00207v124.58508c-6.06198,-0.47149 -18.25159,-0.39463 -18.25159,-0.39463c0,0 8.64779,-58.48657 12.55076,-85.18834z" fill="#00f8ff"/><path d="M144.71028,201.00129l18.58488,124.22617c0,0 -11.92444,0.84043 -18.58488,0.33501z" data-paper-data="{&quot;index&quot;:null}" fill="#00d7de"/></g></g></svg>