<svg version="1.1" xmlns="http://www.w3.org/2000/svg" xmlns:xlink="http://www.w3.org/1999/xlink" width="349.24699" height="64.19662" viewBox="0,0,349.24699,64.19662"><g transform="translate(-76.27606,-266.28608)"><g data-paper-data="{&quot;isPaintingLayer&quot;:true}" fill-rule="nonzero" stroke="none" stroke-width="0" stroke-linecap="butt" stroke-linejoin="miter" stroke-miterlimit="10" stroke-dasharray="" stroke-dashoffset="0" style="mix-blend-mode: normal"><path d="M197.86612,287.76457c2.22483,-7.58527 5.70085,-19.43629 5.70085,-19.43629v62.08573c-6.06198,-0.23496 -18.25159,-0.19666 -18.25159,-0.19666c0,0 8.64779,-29.1462 12.55076,-42.45276z" fill="#00f8ff"/><path d="M203.25572,268.32827l18.58488,61.90687c0,0 -11.92444,0.41882 -18.58488,0.16695z" data-paper-data="{&quot;index&quot;:null}" fill="#00d7de"/><path d="M301.73952,285.72238c2.22483,-7.58527 5.70085,-19.43629 5.70085,-19.43629v62.08573c-6.06198,-0.23496 -18.25159,-0.19666 -18.25159,-0.19666c0,0 8.64779,-29.1462 12.55076,-42.45276z" fill="#00f8ff"/><path d="M307.12912,267.28605l18.58488,61.90687c0,0 -11.92444,0.41882 -18.58488,0.16695z" data-paper-data="{&quot;index&quot;:null}" fill="#00d7de"/><path d="M401.54857,286.17841c2.22483,-7.58527 5.70085,-19.43629 5.70085,-19.43629v62.08573c-6.06198,-0.23496 -18.25159,-0.19666 -18.25159,-0.19666c0,0 8.64779,-29.1462 12.55076,-42.45276z" fill="#00f8ff"/><path d="M406.93817,266.7421l18.58488,61.90687c0,0 -11.92444,0.41882 -18.58488,0.16695z" data-paper-data="{&quot;index&quot;:null}" fill="#00d7de"/><path d="M88.8268,287.39687c2.22483,-7.58527 5.70085,-19.43629 5.70085,-19.43629v62.08573c-6.06198,-0.23496 -18.25159,-0.19666 -18.25159,-0.19666c0,0 8.64779,-29.1462 12.55076,-42.45276z" fill="#00f8ff"/><path d="M94.2164,267.96056l18.58488,61.90687c0,0 -11.92444,0.41882 -18.58488,0.16695z" data-paper-data="{&quot;index&quot;:null}" fill="#00d7de"/></g></g></svg>