<svg version="1.1" xmlns="http://www.w3.org/2000/svg" xmlns:xlink="http://www.w3.org/1999/xlink" width="38.90435" height="38.90435" viewBox="0,0,38.90435,38.90435"><g transform="translate(-220.54784,-160.54785)"><g data-paper-data="{&quot;isPaintingLayer&quot;:true}" fill-rule="nonzero" stroke="none" stroke-linecap="butt" stroke-linejoin="miter" stroke-miterlimit="10" stroke-dasharray="" stroke-dashoffset="0" style="mix-blend-mode: normal"><g fill="#ff0000"><path d="M220.54785,166.3835c0,-3.22295 2.6127,-5.83565 5.83565,-5.83565c3.22295,0 5.83565,2.6127 5.83565,5.83565c0,3.22295 -2.6127,5.83565 -5.83565,5.83565c-3.22295,0 -5.83565,-2.6127 -5.83565,-5.83565z" stroke-width="0.5"/><path d="M247.7809,166.3835c0,-3.22295 2.61272,-5.83565 5.83565,-5.83565c3.22295,0 5.83565,2.6127 5.83565,5.83565c0,3.22295 -2.61272,5.83565 -5.83565,5.83565c-3.22294,0 -5.83565,-2.6127 -5.83565,-5.83565z" stroke-width="0.5"/><path d="M247.7809,193.61654c0,-3.22295 2.61272,-5.83565 5.83565,-5.83565c3.22295,0 5.83565,2.6127 5.83565,5.83565c0,3.22295 -2.61272,5.83565 -5.83565,5.83565c-3.22294,0 -5.83565,-2.6127 -5.83565,-5.83565z" stroke-width="0.5"/><path d="M220.54785,193.61654c0,-3.22295 2.6127,-5.83565 5.83565,-5.83565c3.22295,0 5.83565,2.6127 5.83565,5.83565c0,3.22295 -2.6127,5.83565 -5.83565,5.83565c-3.22295,0 -5.83565,-2.6127 -5.83565,-5.83565z" stroke-width="0.5"/><path d="M220.54785,193.61654v-28.01114h38.90435v28.01114z" stroke-width="0"/><path d="M225.99447,199.45221v-38.90435h26.84401v38.90435z" stroke-width="0"/></g><path d="M226.86982,180.00002c0,-7.25162 5.8786,-13.13022 13.13022,-13.13022c7.25162,0 13.13022,5.8786 13.13022,13.13022c0,7.25162 -5.8786,13.13022 -13.13022,13.13022c-7.25162,0 -13.13022,-5.8786 -13.13022,-13.13022z" fill="#ffffff" stroke-width="0.5"/><path d="M232.02463,180.00002c0,-4.40468 3.57071,-7.9754 7.9754,-7.9754c4.40468,0 7.97539,3.57071 7.97539,7.9754c0,4.40468 -3.57071,7.9754 -7.97539,7.9754c-4.40468,0 -7.9754,-3.57071 -7.9754,-7.9754z" fill="#000000" stroke-width="0.5"/><path d="M240.50153,176.30412c0,-1.28918 1.04508,-2.33426 2.33426,-2.33426c1.28918,0 2.33426,1.04508 2.33426,2.33426c0,1.28918 -1.04508,2.33426 -2.33426,2.33426c-1.28918,0 -2.33426,-1.04508 -2.33426,-2.33426z" fill="#ffffff" stroke-width="0.5"/></g></g></svg>